<?xml version="1.0" standalone="no"?>
<!DOCTYPE svg PUBLIC "-//W3C//DTD SVG 1.1//EN" "http://www.w3.org/Graphics/SVG/1.1/DTD/svg11.dtd">
<svg class="icon" viewBox="0 0 1024 1024" version="1.1" xmlns="http://www.w3.org/2000/svg" width="16" height="16">
  <path
    d="M939.52 247.2L578.624 56.416c-17.888-9.44-40.704-14.656-64.32-14.656-23.328 0-45.856 5.12-63.456 14.336L91.072 244.8c-25.536 13.376-40.192 35.008-40.224 59.328-0.064 24.384 14.624 46.112 40.256 59.68l360.928 190.784c17.856 9.44 40.704 14.624 64.32 14.624 23.296 0 45.824-5.088 63.456-14.304l359.744-188.704c25.536-13.408 40.224-35.04 40.256-59.36 0-24.352-14.656-46.112-40.288-59.648z"
    fill="#137f1a"/>
  <path
    d="M512.96 778.784c-24.832 0-49.664-5.376-69.888-16.064L70.4 565.728a49.216 49.216 0 0 1 45.984-87.008l372.64 196.992c11.264 5.952 35.968 6.08 47.168 0.192l371.424-194.816a49.216 49.216 0 1 1 45.728 87.136l-371.456 194.848c-20 10.464-44.48 15.68-68.992 15.68z"
    fill="#137f1a" opacity=".5"/>
  <path
    d="M512.928 982.24c-24.8 0-49.632-5.344-69.856-16.032L70.4 769.216a49.216 49.216 0 1 1 45.984-87.04l372.64 196.992c11.264 5.952 35.936 6.08 47.136 0.192l371.456-194.816a49.216 49.216 0 1 1 45.728 87.168l-371.456 194.816c-20 10.464-44.48 15.68-68.992 15.68z"
    fill="#137f1a" opacity=".5"/>
</svg>